<?xml version="1.0" encoding="utf-8"?>
<!-- Generator: Adobe Illustrator 21.0.0, SVG Export Plug-In . SVG Version: 6.00 Build 0)  -->
<svg version="1.1" id="Layer_1" xmlns="http://www.w3.org/2000/svg" xmlns:xlink="http://www.w3.org/1999/xlink" x="0px" y="0px"
	 viewBox="0 0 178 50" style="enable-background:new 0 0 178 50;" xml:space="preserve">
<style type="text/css">
	.st0{fill:#ECCD18;}
	.st1{fill:#3F4040;}
</style>
<path class="st0" d="M18.4,10.8h11L21.3,50c-12-2-21.2-12.4-21.2-25C0.1,12.5,9,2.2,20.7,0L18.4,10.8z M46.6,10.8H43l-7.8,37.7
	c9.2-3.8,15.7-12.9,15.7-23.5C50.9,19.7,49.3,14.8,46.6,10.8z"/>
<path class="st1" d="M78.2,34.4h-4V18.9h-5.1v-3.3h14.2v3.3h-5.1V34.4z M98.3,34.4H87.5V15.6h10.8v3.3h-6.8V23h6.4v3.3h-6.4v4.8h6.8
	V34.4z M118.7,34.4h-4.5l-4.9-7.9l-1.7,1.2v6.7h-4V15.6h4v8.6l1.6-2.2l5.1-6.4h4.4l-6.6,8.3L118.7,34.4z M129.6,34.4h-4V18.9h-5.1
	v-3.3h14.2v3.3h-5.1V34.4z M156,25c0,3.1-0.8,5.5-2.3,7.2c-1.5,1.7-3.8,2.5-6.6,2.5c-2.9,0-5.1-0.8-6.6-2.5
	c-1.5-1.7-2.3-4.1-2.3-7.2s0.8-5.5,2.3-7.2c1.5-1.7,3.8-2.5,6.7-2.5c2.9,0,5.1,0.8,6.6,2.5C155.3,19.5,156,21.8,156,25z M142.3,25
	c0,2.1,0.4,3.7,1.2,4.7c0.8,1.1,2,1.6,3.6,1.6c3.2,0,4.8-2.1,4.8-6.3c0-4.2-1.6-6.4-4.7-6.4c-1.6,0-2.8,0.5-3.6,1.6
	C142.7,21.3,142.3,22.9,142.3,25z M177.9,34.4h-5.1l-8.2-14.2h-0.1c0.2,2.5,0.2,4.3,0.2,5.4v8.9h-3.6V15.6h5l8.2,14.1h0.1
	c-0.1-2.4-0.2-4.2-0.2-5.2v-8.9h3.6V34.4z"/>
</svg>
